# Cornell Box - Quads with Boxes (FIXED)
mtllib cbox.mtl

# Light
v -0.884011 5.319334 -2.517968
v -0.884011 5.318497 -3.567968
v 0.415989 5.318497 -3.567968
v 0.415989 5.319334 -2.517968
vn 0.0000 -1.0000 0.0008

# Back wall
v -2.950011 -0.162686 -5.835598
v 2.545989 -0.162686 -5.835598
v 2.545989 5.325313 -5.839967
v -3.014011 5.325313 -5.839967
vn 0.0000 0.0008 1.0000

# Ceiling
v -3.014011 5.329765 -0.247969
v -3.014011 5.325313 -5.839968
v 2.545989 5.325313 -5.839968
v 2.545989 5.329765 -0.247969
vn 0.0000 -1.0000 0.0008

# Floor
v -2.982011 -0.158233 -0.243599
v 2.545989 -0.158233 -0.243599
v 2.545989 -0.162686 -5.835598
v -2.950011 -0.162686 -5.835598
vn 0.0000 1.0000 -0.0008

# Left wall
v -2.982011 -0.158233 -0.243599
v -2.950011 -0.162686 -5.835598
v -3.014011 5.325313 -5.839968
v -3.014011 5.329765 -0.247969
vn 1.0000 0.0058 0.0000

# Right wall
v 2.545989 -0.162686 -5.835598
v 2.545989 -0.158233 -0.243599
v 2.545989 5.329765 -0.247969
v 2.545989 5.325313 -5.839968
vn -1.0000 0.0000 0.0000

# Short box - top (25-28)
v 1.245989 1.491249 -0.894913
v 1.725989 1.489975 -2.494912
v 0.145989 1.489601 -2.964912
v -0.354011 1.490859 -1.384912
vn 0.0000 1.0000 -0.0008

# Short box - bottom (29-32) - FIXED ORDER!
v 1.245989 -0.158750 -0.893599
v 1.725989 -0.160024 -2.493598
v 0.145989 -0.160399 -2.963598
v -0.354011 -0.159141 -1.383599

# Tall box - top (33-36)
v -1.684011 3.139799 -2.716226
v -0.104011 3.139409 -3.206226
v -0.594011 3.138135 -4.806226
v -2.174011 3.138533 -4.306226
vn 0.0000 1.0000 -0.0008

# Tall box - bottom (37-40)
v -1.684011 -0.160200 -2.713598
v -0.104011 -0.160590 -3.203598
v -0.594011 -0.161864 -4.803598
v -2.174011 -0.161466 -4.303598

# === FACES ===

# Light
usemtl Light
f 1//1 2//1 3//1 4//1

# Back wall
usemtl Khaki
f 5//2 6//2 7//2 8//2

# Ceiling
usemtl Khaki
f 9//3 10//3 11//3 12//3

# Floor
usemtl Khaki
f 13//4 14//4 15//4 16//4

# Left wall
usemtl BloodyRed
f 17//5 18//5 19//5 20//5

# Right wall
usemtl DarkGreen
f 21//6 22//6 23//6 24//6

# Short box
usemtl Khaki
f 25//7 26//7 27//7 28//7   # Top
f 25 29 30 26                # Front
f 26 30 31 27                # Right
f 27 31 32 28                # Back
f 28 32 29 25                # Left

# Tall box
usemtl Khaki
f 33//8 34//8 35//8 36//8    # Top
f 33 37 38 34                # Front
f 34 38 39 35                # Right
f 35 39 40 36                # Back
f 36 40 37 33                # Left
